<svg width="53" height="38" viewBox="0 0 53 38" fill="none" xmlns="http://www.w3.org/2000/svg">
<path d="M0 11.707C0 5.04639 4.688 0 11.032 0C17.3759 0 22.0639 5.04639 22.0639 11.707C22.0639 18.3676 17.3848 23.4657 11.032 23.4657C4.67916 23.4657 0 18.3708 0 11.707ZM9.51448 31.5917H2.98782V28.4118H9.51448V21.2466H12.5495V28.4118H19.0761V31.5917H12.5495V38H9.51448V31.5917ZM18.9435 11.707C18.9435 6.56031 15.5432 2.8758 11.0379 2.8758C6.53255 2.8758 3.08211 6.56031 3.08211 11.707C3.08211 16.9054 6.5296 20.5899 11.0379 20.5899C15.5461 20.5899 18.9376 16.9054 18.9376 11.707" fill="black"/>
<path d="M24.2709 23.4657C24.2709 16.8537 28.9589 11.7587 35.3029 11.7587C41.5997 11.7587 46.3349 16.8569 46.3349 23.4657C46.3349 30.1781 41.5997 35.2245 35.3029 35.2245C28.9589 35.2245 24.2709 30.1781 24.2709 23.4657ZM43.2557 23.4657C43.2557 18.3191 39.8082 14.6345 35.2999 14.6345C30.7917 14.6345 27.4031 18.3191 27.4031 23.4657C27.4031 28.6642 30.7976 32.3487 35.3029 32.3487C39.8082 32.3487 43.2586 28.6642 43.2586 23.4657H43.2557ZM40.3121 14.4825L48.4475 5.74836L40.4034 6.10096V3.12811L52.8615 2.97607L53 3.12811L52.9087 16.8537H50.1507L50.519 7.97071L42.5632 16.9539L40.3121 14.4825Z" fill="black"/>
</svg>
