<svg width="104" height="105" viewBox="0 0 104 105" fill="none" xmlns="http://www.w3.org/2000/svg">
<g filter="url(#filter0_d)">
<path d="M93.7804 96.0024C96.6645 96.0023 99.0025 93.8755 99.0024 91.2521C99.0023 88.6287 96.6642 86.5021 93.78 86.5022L20.6698 86.505C17.7856 86.5051 15.4477 88.6319 15.4478 91.2553C15.4479 93.8787 17.786 96.0053 20.6701 96.0052L93.7804 96.0024Z" fill="white"/>
<path d="M99.0013 62.7514C99.0014 65.3748 96.6634 67.5016 93.7793 67.5017L31.1134 67.5041C28.2292 67.5042 25.8911 65.3776 25.891 62.7542C25.8909 60.1308 28.2289 58.004 31.113 58.0039L93.7789 58.0015C96.6631 58.0014 99.0012 60.128 99.0013 62.7514Z" fill="white"/>
<path d="M93.7782 39.001C96.6623 39.0009 99.0003 36.8741 99.0002 34.2507C99.0001 31.6273 96.662 29.5007 93.7778 29.5008L10.2232 29.504C7.33912 29.5041 5.00115 31.6309 5.00125 34.2543C5.00135 36.8778 7.33949 39.0044 10.2236 39.0042L93.7782 39.001Z" fill="white"/>
<path d="M93.7771 10.5003C96.6612 10.5002 98.9992 8.37344 98.9991 5.75002C98.999 3.12661 96.6609 0.999999 93.7767 1.00011L51.9994 1.00172C49.1153 1.00183 46.7774 3.12862 46.7775 5.75203C46.7776 8.37545 49.1157 10.5021 51.9998 10.502L93.7771 10.5003Z" fill="white"/>
<path d="M93.7804 96.0024C96.6645 96.0023 99.0025 93.8755 99.0024 91.2521C99.0023 88.6287 96.6642 86.5021 93.78 86.5022L20.6698 86.505C17.7856 86.5051 15.4477 88.6319 15.4478 91.2553C15.4479 93.8787 17.786 96.0053 20.6701 96.0052L93.7804 96.0024Z" stroke="#0F2D57" stroke-linecap="round"/>
<path d="M99.0013 62.7514C99.0014 65.3748 96.6634 67.5016 93.7793 67.5017L31.1134 67.5041C28.2292 67.5042 25.8911 65.3776 25.891 62.7542C25.8909 60.1308 28.2289 58.004 31.113 58.0039L93.7789 58.0015C96.6631 58.0014 99.0012 60.128 99.0013 62.7514Z" stroke="#0F2D57" stroke-linecap="round"/>
<path d="M93.7782 39.001C96.6623 39.0009 99.0003 36.8741 99.0002 34.2507C99.0001 31.6273 96.662 29.5007 93.7778 29.5008L10.2232 29.504C7.33912 29.5041 5.00115 31.6309 5.00125 34.2543C5.00135 36.8778 7.33949 39.0044 10.2236 39.0042L93.7782 39.001Z" stroke="#0F2D57" stroke-linecap="round"/>
<path d="M93.7771 10.5003C96.6612 10.5002 98.9992 8.37344 98.9991 5.75002C98.999 3.12661 96.6609 0.999999 93.7767 1.00011L51.9994 1.00172C49.1153 1.00183 46.7774 3.12862 46.7775 5.75203C46.7776 8.37545 49.1157 10.5021 51.9998 10.502L93.7771 10.5003Z" stroke="#0F2D57" stroke-linecap="round"/>
</g>
<defs>
<filter id="filter0_d" x="0.5" y="0.5" width="103.003" height="104.006" filterUnits="userSpaceOnUse" color-interpolation-filters="sRGB">
<feFlood flood-opacity="0" result="BackgroundImageFix"/>
<feColorMatrix in="SourceAlpha" type="matrix" values="0 0 0 0 0 0 0 0 0 0 0 0 0 0 0 0 0 0 127 0"/>
<feOffset dy="4"/>
<feGaussianBlur stdDeviation="2"/>
<feColorMatrix type="matrix" values="0 0 0 0 0 0 0 0 0 0 0 0 0 0 0 0 0 0 0.25 0"/>
<feBlend mode="normal" in2="BackgroundImageFix" result="effect1_dropShadow"/>
<feBlend mode="normal" in="SourceGraphic" in2="effect1_dropShadow" result="shape"/>
</filter>
</defs>
</svg>
